<svg width="26" height="26" viewBox="0 0 26 26" fill="none" xmlns="http://www.w3.org/2000/svg">
<path fill-rule="evenodd" clip-rule="evenodd" d="M19.295 8.115C19.6844 7.72564 19.6844 7.09436 19.295 6.705C18.9056 6.31564 18.2744 6.31564 17.885 6.705L13.7071 10.8829C13.3166 11.2734 12.6834 11.2734 12.2929 10.8829L8.115 6.705C7.72564 6.31564 7.09436 6.31564 6.705 6.705C6.31564 7.09436 6.31564 7.72564 6.705 8.115L10.8829 12.2929C11.2734 12.6834 11.2734 13.3166 10.8829 13.7071L6.705 17.885C6.31564 18.2744 6.31564 18.9056 6.705 19.295C7.09436 19.6844 7.72564 19.6844 8.115 19.295L12.2929 15.1171C12.6834 14.7266 13.3166 14.7266 13.7071 15.1171L17.885 19.295C18.2744 19.6844 18.9056 19.6844 19.295 19.295C19.6844 18.9056 19.6844 18.2744 19.295 17.885L15.1171 13.7071C14.7266 13.3166 14.7266 12.6834 15.1171 12.2929L19.295 8.115Z" fill="#21BDCB"/>
</svg>
