<svg width="54" height="54" viewBox="0 0 54 54" fill="none" xmlns="http://www.w3.org/2000/svg">
<path fill-rule="evenodd" clip-rule="evenodd" d="M33.295 22.115C33.6844 21.7256 33.6844 21.0944 33.295 20.705V20.705C32.9056 20.3156 32.2744 20.3156 31.885 20.705L27.7071 24.8829C27.3166 25.2734 26.6834 25.2734 26.2929 24.8829L22.115 20.705C21.7256 20.3156 21.0944 20.3156 20.705 20.705V20.705C20.3156 21.0944 20.3156 21.7256 20.705 22.115L24.8829 26.2929C25.2734 26.6834 25.2734 27.3166 24.8829 27.7071L20.705 31.885C20.3156 32.2744 20.3156 32.9056 20.705 33.295V33.295C21.0944 33.6844 21.7256 33.6844 22.115 33.295L26.2929 29.1171C26.6834 28.7266 27.3166 28.7266 27.7071 29.1171L31.885 33.295C32.2744 33.6844 32.9056 33.6844 33.295 33.295V33.295C33.6844 32.9056 33.6844 32.2744 33.295 31.885L29.1171 27.7071C28.7266 27.3166 28.7266 26.6834 29.1171 26.2929L33.295 22.115Z" fill="#757575"/>
</svg>
