<svg width="8" height="8" viewBox="0 0 8 8" fill="none" xmlns="http://www.w3.org/2000/svg">
<path fill-rule="evenodd" clip-rule="evenodd" d="M7.59714 1.20857C7.81963 0.98608 7.81964 0.625349 7.59714 0.402857V0.402857C7.37465 0.180365 7.01392 0.180365 6.79143 0.402857L4.70711 2.48718C4.31658 2.8777 3.68342 2.8777 3.29289 2.48718L1.20857 0.402858C0.98608 0.180366 0.625349 0.180365 0.402857 0.402857V0.402857C0.180365 0.625349 0.180365 0.98608 0.402857 1.20857L2.48718 3.29289C2.8777 3.68342 2.8777 4.31658 2.48718 4.70711L0.402858 6.79143C0.180366 7.01392 0.180365 7.37465 0.402857 7.59714V7.59714C0.625349 7.81964 0.98608 7.81964 1.20857 7.59714L3.29289 5.51282C3.68342 5.1223 4.31658 5.1223 4.70711 5.51282L6.79143 7.59714C7.01392 7.81963 7.37465 7.81964 7.59714 7.59714V7.59714C7.81964 7.37465 7.81964 7.01392 7.59714 6.79143L5.51282 4.70711C5.1223 4.31658 5.1223 3.68342 5.51282 3.29289L7.59714 1.20857Z" fill="#757575"/>
</svg>
