<svg width="30" height="30" viewBox="0 0 30 30" fill="none" xmlns="http://www.w3.org/2000/svg">
<path fill-rule="evenodd" clip-rule="evenodd" d="M8.95337 0.421496C10.5174 0.349496 11.016 0.333496 15 0.333496C18.984 0.333496 19.4827 0.350829 21.0454 0.421496C22.608 0.492163 23.6747 0.741496 24.608 1.10283C25.5854 1.47216 26.472 2.0495 27.2054 2.79616C27.952 3.52816 28.528 4.4135 28.896 5.39216C29.2587 6.3255 29.5067 7.39216 29.5787 8.95216C29.6507 10.5188 29.6667 11.0175 29.6667 15.0002C29.6667 18.9842 29.6494 19.4828 29.5787 21.0468C29.508 22.6068 29.2587 23.6735 28.896 24.6068C28.528 25.5856 27.9511 26.4724 27.2054 27.2055C26.472 27.9522 25.5854 28.5282 24.608 28.8962C23.6747 29.2588 22.608 29.5068 21.048 29.5788C19.4827 29.6508 18.984 29.6668 15 29.6668C11.016 29.6668 10.5174 29.6495 8.95337 29.5788C7.39337 29.5082 6.32671 29.2588 5.39337 28.8962C4.4146 28.5281 3.5278 27.9512 2.79471 27.2055C2.04855 26.4731 1.47113 25.5867 1.10271 24.6082C0.741374 23.6748 0.493374 22.6082 0.421374 21.0482C0.349374 19.4815 0.333374 18.9828 0.333374 15.0002C0.333374 11.0162 0.350707 10.5175 0.421374 8.95483C0.492041 7.39216 0.741374 6.3255 1.10271 5.39216C1.47167 4.4136 2.04953 3.52725 2.79604 2.79483C3.52809 2.04883 4.414 1.47142 5.39204 1.10283C6.32537 0.741496 7.39204 0.493496 8.95204 0.421496H8.95337ZM20.9267 3.0615C19.38 2.99083 18.916 2.97616 15 2.97616C11.084 2.97616 10.62 2.99083 9.07337 3.0615C7.64271 3.12683 6.86671 3.3655 6.34937 3.56683C5.66537 3.8335 5.17604 4.1495 4.66271 4.66283C4.1761 5.13623 3.80161 5.71254 3.56671 6.3495C3.36537 6.86683 3.12671 7.64283 3.06137 9.0735C2.99071 10.6202 2.97604 11.0842 2.97604 15.0002C2.97604 18.9162 2.99071 19.3802 3.06137 20.9268C3.12671 22.3575 3.36537 23.1335 3.56671 23.6508C3.80137 24.2868 4.17604 24.8642 4.66271 25.3375C5.13604 25.8242 5.71337 26.1988 6.34937 26.4335C6.86671 26.6348 7.64271 26.8735 9.07337 26.9388C10.62 27.0095 11.0827 27.0242 15 27.0242C18.9174 27.0242 19.38 27.0095 20.9267 26.9388C22.3574 26.8735 23.1334 26.6348 23.6507 26.4335C24.3347 26.1668 24.824 25.8508 25.3374 25.3375C25.824 24.8642 26.1987 24.2868 26.4334 23.6508C26.6347 23.1335 26.8734 22.3575 26.9387 20.9268C27.0094 19.3802 27.024 18.9162 27.024 15.0002C27.024 11.0842 27.0094 10.6202 26.9387 9.0735C26.8734 7.64283 26.6347 6.86683 26.4334 6.3495C26.1667 5.6655 25.8507 5.17616 25.3374 4.66283C24.8639 4.17626 24.2876 3.80178 23.6507 3.56683C23.1334 3.3655 22.3574 3.12683 20.9267 3.0615ZM13.1267 19.5215C14.1729 19.957 15.3379 20.0158 16.4226 19.6878C17.5073 19.3598 18.4446 18.6654 19.0742 17.7232C19.7038 16.7809 19.9868 15.6493 19.8748 14.5216C19.7628 13.3939 19.2627 12.3401 18.46 11.5402C17.9484 11.0288 17.3297 10.6372 16.6485 10.3937C15.9673 10.1501 15.2406 10.0606 14.5207 10.1317C13.8008 10.2027 13.1056 10.4324 12.4851 10.8043C11.8646 11.1763 11.3344 11.6812 10.9324 12.2826C10.5305 12.8841 10.267 13.5672 10.1607 14.2828C10.0545 14.9983 10.1082 15.7286 10.3181 16.4209C10.5279 17.1131 10.8887 17.7503 11.3743 18.2865C11.86 18.8226 12.4585 19.2444 13.1267 19.5215ZM9.66937 9.6695C10.3694 8.96946 11.2005 8.41417 12.1151 8.03531C13.0297 7.65646 14.01 7.46146 15 7.46146C15.99 7.46146 16.9703 7.65646 17.885 8.03531C18.7996 8.41417 19.6307 8.96946 20.3307 9.6695C21.0307 10.3695 21.586 11.2006 21.9649 12.1152C22.3437 13.0299 22.5387 14.0102 22.5387 15.0002C22.5387 15.9902 22.3437 16.9705 21.9649 17.8851C21.586 18.7997 21.0307 19.6308 20.3307 20.3308C18.9169 21.7446 16.9994 22.5389 15 22.5389C13.0007 22.5389 11.0832 21.7446 9.66937 20.3308C8.25559 18.917 7.46134 16.9996 7.46134 15.0002C7.46134 13.0008 8.25559 11.0833 9.66937 9.6695ZM24.2107 8.58416C24.3842 8.42052 24.5231 8.22374 24.6191 8.00546C24.7152 7.78719 24.7665 7.55185 24.7699 7.3134C24.7734 7.07495 24.729 6.83823 24.6394 6.61724C24.5497 6.39626 24.4166 6.19551 24.248 6.02688C24.0794 5.85825 23.8786 5.72517 23.6576 5.63552C23.4366 5.54587 23.1999 5.50146 22.9615 5.50494C22.723 5.50842 22.4877 5.5597 22.2694 5.65576C22.0511 5.75181 21.8543 5.89069 21.6907 6.06416C21.3725 6.40154 21.1982 6.84966 21.205 7.3134C21.2117 7.77715 21.399 8.22 21.7269 8.54795C22.0549 8.87591 22.4977 9.06313 22.9615 9.06989C23.4252 9.07666 23.8733 8.90242 24.2107 8.58416Z" fill="#FE744F"/>
</svg>
