<svg width="84" height="84" viewBox="0 0 84 84" fill="none" xmlns="http://www.w3.org/2000/svg">
<path d="M84 40.6152C84 56.3819 74.7096 70.0498 61.1364 76.7803C57.172 78.748 52.8423 80.1254 48.2727 80.7863C47.4381 80.9074 46.5931 81.0033 45.7376 81.079C44.5065 81.1849 43.2598 81.2404 42.0026 81.2404C38.8415 81.2404 35.7638 80.9024 32.8061 80.2616C31.9401 80.0749 31.0794 79.863 30.2344 79.6208C27.1619 78.7581 24.2355 77.5573 21.4969 76.079C20.0415 75.2919 18.6435 74.4241 17.3029 73.4756C11.8361 69.631 7.36558 64.5302 4.33484 58.612C1.55971 53.1882 0 47.0833 0 40.6202C0 18.1835 18.8 1.0497e-06 41.9974 1.0497e-06C65.2 -0.00504431 84 18.1784 84 40.6152Z" fill="#21BDCB"/>
<path d="M22.5664 55.4805C22.5664 55.4805 34.0008 67.3515 34.1677 67.8358C34.3346 68.3151 33.6722 56.9486 33.6722 56.9486L22.5664 55.4805Z" fill="#232F48"/>
<path d="M65.075 38.6955C65.075 39.1294 65.0594 39.5532 65.0385 39.982C64.35 52.6199 53.5363 62.6595 40.2971 62.6595C39.019 62.6595 37.7619 62.5637 36.536 62.3871C24.6374 60.6365 15.5243 50.6977 15.5243 38.6955C15.5243 25.4624 26.6144 14.7316 40.2971 14.7316C50.203 14.7316 58.7528 20.3518 62.7172 28.4793C64.0526 31.2137 64.8664 34.2307 65.0385 37.4141C65.0594 37.8328 65.075 38.2617 65.075 38.6955Z" fill="#232F48"/>
<path d="M65.0383 35.5525V51.1771C65.0383 51.2376 65.0383 51.3032 65.0331 51.3637C64.934 59.7234 57.9596 66.4787 49.3264 66.6048C44.1413 66.6805 39.5039 64.2639 36.5358 60.5255C34.4075 57.8517 33.1399 54.5017 33.1399 50.9097V46.5356C33.1399 39.1951 38.2676 32.7778 45.6123 30.9313L59.2585 27.4048C60.5939 30.1392 64.8661 32.3742 65.0383 35.5525Z" fill="white"/>
<path d="M37.0001 49.5828C37.0001 52.7158 34.371 55.2585 31.1317 55.2585C27.8923 55.2585 25.2632 52.7158 25.2632 49.5828C25.2632 46.4498 27.8923 43.9071 31.1317 43.9071C34.371 43.9071 37.0001 46.4498 37.0001 49.5828Z" fill="white"/>
<path d="M48.6066 83.546C47.7667 83.6671 46.9269 83.763 46.0714 83.8386C44.8403 83.9446 43.5936 84.0001 42.3364 84.0001C39.1753 84.0001 36.0976 83.6621 33.1399 83.0213V53.0336L34.9239 53.8307L34.9865 53.8559L37.0313 54.7691L47.7146 59.5467L48.184 59.7536L48.351 68.2141L48.3562 68.4361L48.6066 83.546Z" fill="white"/>
<path d="M38.7423 43.8767H30.9855V53.8306H38.7423V43.8767Z" fill="white"/>
<path d="M33.6615 32.7121L28.6589 24.978" stroke="#232F48" stroke-width="0.6397" stroke-miterlimit="10" stroke-linecap="round"/>
<path d="M33.1972 42.8072V46.7626C33.1972 47.9179 34.1674 48.8563 35.362 48.8563C36.5565 48.8563 37.5268 47.9179 37.5268 46.7626V46.7474C37.5268 42.7265 40.8966 39.4674 45.0541 39.4674H65.2886C67.3804 39.4674 68.6427 37.2325 67.516 35.5323L60.9381 25.5734C60.9381 25.5734 42.7119 28.4036 37.9232 33.4235C33.1398 38.4332 33.1972 42.8072 33.1972 42.8072Z" fill="#232F48"/>
<path d="M60 73.738C60.4738 74.0542 68.7774 76.6243 74.0398 78.2356C75.8279 78.7813 77.4784 77.073 76.8722 75.3035L72.2924 61.8975L60 73.738Z" fill="#21BDCB"/>
</svg>
