<svg width="186" height="84" viewBox="0 0 186 84" fill="none" xmlns="http://www.w3.org/2000/svg">
<path d="M84 40.6152C84 56.3819 74.7096 70.0498 61.1364 76.7803C57.172 78.748 52.8423 80.1254 48.2727 80.7863C47.4381 80.9074 46.5931 81.0033 45.7376 81.079C44.5065 81.1849 43.2598 81.2404 42.0026 81.2404C38.8415 81.2404 35.7638 80.9024 32.8061 80.2616C31.9401 80.0749 31.0794 79.863 30.2344 79.6208C27.1619 78.7581 24.2355 77.5573 21.4969 76.079C20.0415 75.2919 18.6435 74.4241 17.3029 73.4756C11.8361 69.631 7.36558 64.5302 4.33484 58.612C1.55971 53.1882 0 47.0833 0 40.6202C0 18.1835 18.8 1.0497e-06 41.9974 1.0497e-06C65.2 -0.00504431 84 18.1784 84 40.6152Z" fill="#21BDCB"/>
<path d="M22.5664 55.4805C22.5664 55.4805 34.0008 67.3515 34.1677 67.8358C34.3346 68.3151 33.6722 56.9486 33.6722 56.9486L22.5664 55.4805Z" fill="#232F48"/>
<path d="M65.0749 38.6954C65.0749 39.1293 65.0593 39.5531 65.0384 39.9819C64.3499 52.6198 53.5362 62.6594 40.2969 62.6594C39.0189 62.6594 37.7618 62.5635 36.5359 62.387C24.6373 60.6363 15.5242 50.6976 15.5242 38.6954C15.5242 25.4623 26.6143 14.7314 40.2969 14.7314C50.2029 14.7314 58.7526 20.3516 62.7171 28.4792C64.0525 31.2136 64.8663 34.2306 65.0384 37.414C65.0593 37.8327 65.0749 38.2615 65.0749 38.6954Z" fill="#232F48"/>
<path d="M65.0383 35.5521V51.1766C65.0383 51.2371 65.0383 51.3027 65.0331 51.3632C64.934 59.7229 57.9596 66.4782 49.3264 66.6043C44.1413 66.68 39.5039 64.2634 36.5358 60.525C34.4075 57.8512 33.1399 54.5013 33.1399 50.9092V46.5351C33.1399 39.1946 38.2676 32.7773 45.6123 30.9308L59.2585 27.4043C60.5939 30.1387 64.8661 32.3737 65.0383 35.5521Z" fill="white"/>
<path d="M37.0001 49.5829C37.0001 52.7159 34.371 55.2586 31.1317 55.2586C27.8923 55.2586 25.2632 52.7159 25.2632 49.5829C25.2632 46.4499 27.8923 43.9072 31.1317 43.9072C34.371 43.9072 37.0001 46.4499 37.0001 49.5829Z" fill="white"/>
<path d="M48.6066 83.5457C47.7667 83.6667 46.9269 83.7626 46.0714 83.8383C44.8403 83.9442 43.5936 83.9997 42.3364 83.9997C39.1753 83.9997 36.0976 83.6617 33.1399 83.021V53.0332L34.9239 53.8303L34.9865 53.8555L37.0313 54.7687L47.7146 59.5464L48.184 59.7532L48.351 68.2138L48.3562 68.4357L48.6066 83.5457Z" fill="white"/>
<path d="M38.7422 43.877H30.9854V53.8308H38.7422V43.877Z" fill="white"/>
<path d="M33.6615 32.7126L28.6589 24.9785" stroke="#232F48" stroke-width="0.6397" stroke-miterlimit="10" stroke-linecap="round"/>
<path d="M33.1973 42.8071V46.7624C33.1973 47.9178 34.1675 48.8561 35.3621 48.8561C36.5567 48.8561 37.5269 47.9178 37.5269 46.7624V46.7473C37.5269 42.7264 40.8967 39.4673 45.0542 39.4673H65.2887C67.3805 39.4673 68.6429 37.2323 67.5161 35.5322L60.9382 25.5732C60.9382 25.5732 42.712 28.4035 37.9234 33.4233C33.1399 38.4331 33.1973 42.8071 33.1973 42.8071Z" fill="#232F48"/>
<path d="M60 73.738C60.4738 74.0542 68.7774 76.6243 74.0398 78.2356C75.8279 78.7813 77.4784 77.073 76.8722 75.3035L72.2924 61.8975L60 73.738Z" fill="#21BDCB"/>
<path d="M96.68 57.24C96.1733 57.24 95.7333 57.1733 95.36 57.04C94.9067 56.9067 94.68 56.5333 94.68 55.92V32.68C94.68 32.2267 94.6 31.5467 94.44 30.64C94.2533 29.8133 94.16 29.1333 94.16 28.6V28.48C94.6133 27.7333 94.9467 27.2533 95.16 27.04C95.5333 27.04 96.0267 26.9867 96.64 26.88C97.2 26.7733 97.6933 26.72 98.12 26.72C98.5467 26.72 98.96 26.8533 99.36 27.12C99.76 27.36 99.96 27.6533 99.96 28C99.96 28.8 99.3467 29.2 98.12 29.2H97.56C97.4 29.1733 97.2133 29.16 97 29.16C96.76 29.16 96.6133 29.1733 96.56 29.2C96.56 30.1067 96.6133 31.2 96.72 32.48L96.8 33.6L96.88 35.8C96.88 36.3067 96.84 37.08 96.76 38.12L96.68 40.36L97.24 40.24C97.7733 40.08 98.2133 40 98.56 40C98.8533 40 99.12 40.12 99.36 40.36C99.6 40.5733 99.72 40.8267 99.72 41.12C99.72 41.44 99.6133 41.7333 99.4 42C99.2133 42.24 98.9733 42.36 98.68 42.36L98.2 42.32H97.68C97.28 42.32 97 42.4133 96.84 42.6V54.96L99.08 54.84C100.6 54.84 101.36 55.1867 101.36 55.88V56.04C101.2 56.36 100.907 56.6267 100.48 56.84C100.053 57.0267 99.64 57.1467 99.24 57.2L97.92 57.24H96.68ZM113.453 57C113.026 57 112.706 56.92 112.493 56.76C112.306 56.6 112.213 56.3333 112.213 55.96V50.72C111.866 50.48 111.213 50.2667 110.253 50.08C109.293 49.8933 108.386 49.7733 107.533 49.72C107.239 50.28 107.026 50.96 106.893 51.76L106.733 52.56C106.706 52.7467 106.626 53.16 106.493 53.8C106.359 54.44 106.213 55 106.053 55.48C105.893 55.9333 105.733 56.2933 105.573 56.56C104.559 56.56 103.973 56.2933 103.813 55.76C104.106 55.3333 104.439 54.08 104.813 52L106.133 44.68C106.719 41.2133 107.253 38.2533 107.733 35.8C108.239 33.3467 108.773 31.2933 109.333 29.64C109.946 27.8 110.533 26.88 111.093 26.88C111.653 26.88 112.079 26.9867 112.373 27.2C112.373 28.2667 112.626 30.84 113.133 34.92C113.666 38.92 113.933 41.6533 113.933 43.12C113.933 44.5333 114.079 46.56 114.373 49.2C114.639 51.8933 114.773 54.04 114.773 55.64C114.773 56.5467 114.333 57 113.453 57ZM111.373 48.4C111.586 48.4 111.853 48.36 112.173 48.28C112.093 47.1067 111.959 45.6533 111.773 43.92C111.159 37.8933 110.853 34.2 110.853 32.84V32.52C110.586 32.7867 110.213 34 109.733 36.16C109.279 38.2933 108.853 40.5867 108.453 43.04C108.053 45.4933 107.839 47.12 107.813 47.92C108.933 48.24 110.119 48.4 111.373 48.4ZM121.797 57.88C120.837 57.88 120.011 57.7067 119.317 57.36C118.891 57.12 118.677 56.84 118.677 56.52C118.677 56.2 118.757 55.9467 118.917 55.76C119.077 55.5467 119.304 55.44 119.597 55.44C119.864 55.44 120.251 55.5467 120.757 55.76C121.317 55.9733 121.664 56.08 121.797 56.08C122.304 56.08 122.757 55.8667 123.157 55.44C123.584 54.9867 123.917 54.4 124.157 53.68C124.637 52.3467 124.877 51.1467 124.877 50.08C124.877 48.9333 124.691 47.7333 124.317 46.48C123.971 45.2 123.491 43.96 122.877 42.76L122.237 41.48C121.571 40.1467 121.051 39.0933 120.677 38.32C120.331 37.5467 120.024 36.7067 119.757 35.8C119.357 34.52 119.157 33.28 119.157 32.08C119.157 31.12 119.317 30.2133 119.637 29.36C119.984 28.5067 120.491 27.7867 121.157 27.2C121.824 26.56 122.651 26.24 123.637 26.24C124.117 26.24 124.584 26.3867 125.037 26.68C125.491 26.9467 125.811 27.2933 125.997 27.72L125.317 28.56C124.624 28.56 124.104 28.4267 123.757 28.16C123.277 28.2133 122.851 28.4533 122.477 28.88C122.131 29.28 121.864 29.7467 121.677 30.28C121.517 30.7867 121.437 31.2933 121.437 31.8C121.437 32.8133 121.571 33.8533 121.837 34.92C122.131 35.96 122.504 36.9467 122.957 37.88L125.757 43.48C126.211 44.44 126.571 45.52 126.837 46.72C127.104 47.92 127.237 49.12 127.237 50.32C127.237 52.08 126.811 53.7333 125.957 55.28C125.504 56.08 124.917 56.7067 124.197 57.16C123.477 57.64 122.677 57.88 121.797 57.88ZM134.623 57.48C134.356 57.48 134.116 57.3867 133.903 57.2C133.716 57.0133 133.623 56.7867 133.623 56.52L133.703 52.64C133.783 50.9067 133.823 49.6133 133.823 48.76C133.823 47.9867 133.703 46.84 133.463 45.32C133.196 43.8267 133.063 42.6667 133.063 41.84C133.063 40.8267 132.916 39.6667 132.623 38.36C132.329 37.0533 131.956 35.8 131.503 34.6C131.076 33.4533 130.716 32.2267 130.423 30.92C130.129 29.5867 129.983 28.4267 129.983 27.44C129.983 27.2533 130.089 27.0933 130.303 26.96C130.516 26.8267 130.743 26.76 130.983 26.76C131.276 26.76 131.556 27.0667 131.823 27.68C132.143 28.3733 132.449 29.3467 132.743 30.6C133.036 31.8533 133.209 32.6 133.263 32.84L133.783 35.6L134.183 37.36C134.263 36.9333 134.329 36.3733 134.383 35.68C134.543 33.4667 134.743 31.6267 134.983 30.16C135.169 29.1467 135.383 28.3733 135.623 27.84C135.889 27.2533 136.209 26.96 136.583 26.96C137.303 26.96 137.663 27.0933 137.663 27.36C137.663 28.88 137.343 31.12 136.703 34.08C136.063 37.04 135.743 39.2933 135.743 40.84L135.663 41.48C135.609 41.88 135.596 42.12 135.623 42.2V42.84C135.623 43.9867 135.663 45.7467 135.743 48.12L135.823 53.44L135.903 54.36L135.983 55.32V56.32C135.983 56.64 135.849 56.9067 135.583 57.12C135.316 57.36 134.996 57.48 134.623 57.48Z" fill="#1D1D1D"/>
<path d="M149.369 57.6C149.022 57.6 148.755 57.4667 148.569 57.2C148.409 56.96 148.329 56.6533 148.329 56.28C148.329 50.7067 148.222 46 148.009 42.16C147.369 42.0533 146.915 42 146.649 42C145.555 42 144.769 42.0933 144.289 42.28C144.289 43.7733 144.409 46.0267 144.649 49.04C144.862 52.24 144.969 54.5067 144.969 55.84C144.969 56.1067 144.889 56.36 144.729 56.6C144.569 56.8133 144.369 56.92 144.129 56.92C143.782 56.92 143.462 56.3067 143.169 55.08C142.742 53.2667 142.395 49.4667 142.129 43.68C141.942 39.76 141.849 35.5467 141.849 31.04C141.822 30.2133 141.809 29.04 141.809 27.52C141.809 27.04 142.035 26.8 142.489 26.8C142.755 26.8 143.022 26.8667 143.289 27C143.582 27.1333 143.795 27.28 143.929 27.44C143.822 28.2933 143.769 29.2933 143.769 30.44C143.769 31.56 143.822 32.92 143.929 34.52C144.009 36.36 144.049 37.7467 144.049 38.68V39.4C144.022 39.6133 144.009 39.8667 144.009 40.16C144.009 40.4267 144.035 40.7733 144.089 41.2C144.249 41.2 144.515 41.1867 144.889 41.16C145.262 41.1333 145.635 41.0933 146.009 41.04C146.889 40.96 147.542 40.92 147.969 40.92C147.969 38.6 147.942 36.4533 147.889 34.48L147.809 27.8V26.72C148.155 26.72 148.462 26.7867 148.729 26.92C148.995 27.0267 149.195 27.1733 149.329 27.36C149.569 27.6533 149.715 28.16 149.769 28.88V29.8C149.769 32.0933 149.902 36.48 150.169 42.96C150.409 48.8267 150.529 53.2267 150.529 56.16C150.529 56.5333 150.409 56.8667 150.169 57.16C149.955 57.4533 149.689 57.6 149.369 57.6ZM157.852 57.24C157.345 57.24 156.905 57.1733 156.532 57.04C156.079 56.9067 155.852 56.5333 155.852 55.92V32.68C155.852 32.2267 155.772 31.5467 155.612 30.64C155.425 29.8133 155.332 29.1333 155.332 28.6V28.48C155.785 27.7333 156.119 27.2533 156.332 27.04C156.705 27.04 157.199 26.9867 157.812 26.88C158.372 26.7733 158.865 26.72 159.292 26.72C159.719 26.72 160.132 26.8533 160.532 27.12C160.932 27.36 161.132 27.6533 161.132 28C161.132 28.8 160.519 29.2 159.292 29.2H158.732C158.572 29.1733 158.385 29.16 158.172 29.16C157.932 29.16 157.785 29.1733 157.732 29.2C157.732 30.1067 157.785 31.2 157.892 32.48L157.972 33.6L158.052 35.8C158.052 36.3067 158.012 37.08 157.932 38.12L157.852 40.36L158.412 40.24C158.945 40.08 159.385 40 159.732 40C160.025 40 160.292 40.12 160.532 40.36C160.772 40.5733 160.892 40.8267 160.892 41.12C160.892 41.44 160.785 41.7333 160.572 42C160.385 42.24 160.145 42.36 159.852 42.36L159.372 42.32H158.852C158.452 42.32 158.172 42.4133 158.012 42.6V54.96L160.252 54.84C161.772 54.84 162.532 55.1867 162.532 55.88V56.04C162.372 56.36 162.079 56.6267 161.652 56.84C161.225 57.0267 160.812 57.1467 160.412 57.2L159.092 57.24H157.852ZM168.545 57.44C168.198 57.44 167.878 57.3067 167.585 57.04C167.318 56.8 167.185 56.5067 167.185 56.16C167.185 55.92 167.238 55.6267 167.345 55.28C167.425 54.9067 167.465 54.6267 167.465 54.44C167.465 52.0667 167.331 47.5067 167.065 40.76C166.798 35 166.665 30.4533 166.665 27.12C166.665 26.88 166.758 26.6933 166.945 26.56C167.131 26.4 167.358 26.32 167.625 26.32C167.945 26.32 168.225 26.44 168.465 26.68C168.705 26.8933 168.825 27.16 168.825 27.48C168.825 29.08 168.905 31.48 169.065 34.68C169.198 38.2267 169.265 40.6267 169.265 41.88L169.305 42.36V42.84V43.12V43.32C169.385 45.64 169.425 49.1067 169.425 53.72V54.76H172.505C173.065 55.16 173.345 55.56 173.345 55.96C173.345 56.2533 173.238 56.52 173.025 56.76C172.838 56.9733 172.611 57.08 172.345 57.08C172.265 57.08 172.118 57.0533 171.905 57L171.745 56.96C171.585 56.9867 171.331 57 170.985 57H170.305C170.118 56.9733 169.905 56.96 169.665 56.96C169.398 57.28 169.025 57.44 168.545 57.44ZM178.065 57.2C177.771 57.2 177.531 57.08 177.345 56.84C177.185 56.5733 177.105 56.2533 177.105 55.88L177.185 49.16C177.265 45.9067 177.305 43.3867 177.305 41.6C177.305 35.3867 176.958 30.6267 176.265 27.32C176.665 26.7067 177.171 26.4 177.785 26.4C178.771 26.4 179.665 26.6267 180.465 27.08C181.291 27.5067 181.971 28.0933 182.505 28.84C183.545 30.3867 184.065 32.12 184.065 34.04C184.065 36.04 183.638 37.8267 182.785 39.4C181.931 40.9733 180.691 42.2 179.065 43.08L179.145 47.12L179.225 49.24C179.251 49.6933 179.265 50.3467 179.265 51.2C179.345 52.9867 179.385 54.44 179.385 55.56C179.385 56.0667 179.278 56.4667 179.065 56.76C178.851 57.0533 178.518 57.2 178.065 57.2ZM178.985 41.16C180.025 40.1733 180.785 39.1467 181.265 38.08C181.771 36.9867 182.025 35.76 182.025 34.4V34.36C182.025 33.7467 181.958 32.9733 181.825 32.04C181.745 31.72 181.598 31.4 181.385 31.08C181.171 30.76 181.051 30.5733 181.025 30.52C180.838 30.2533 180.345 29.84 179.545 29.28L178.505 28.52C178.505 29.88 178.585 31.9867 178.745 34.84L178.985 41.16Z" fill="#21BDCB"/>
</svg>
