<svg width="120" height="120" viewBox="0 0 120 120" fill="none" xmlns="http://www.w3.org/2000/svg">
<path d="M52.485 18.75C52.485 23.7228 50.5096 28.4919 46.9933 32.0083C43.4769 35.5246 38.7078 37.5 33.735 37.5C28.7622 37.5 23.9931 35.5246 20.4767 32.0083C16.9604 28.4919 14.985 23.7228 14.985 18.75C14.985 13.7772 16.9604 9.00806 20.4767 5.49175C23.9931 1.97544 28.7622 0 33.735 0C38.7078 0 43.4769 1.97544 46.9933 5.49175C50.5096 9.00806 52.485 13.7772 52.485 18.75ZM84.1725 49.1475C83.4692 48.7952 82.6729 48.673 81.8962 48.7981C81.1196 48.9233 80.402 49.2895 79.845 49.845L52.02 85.17L32.07 64.38C31.3497 63.9005 30.4857 63.6848 29.6245 63.7695C28.7634 63.8543 27.958 64.2342 27.345 64.845L0 97.5V112.5C0 114.489 0.790176 116.397 2.1967 117.803C3.60322 119.21 5.51088 120 7.5 120H112.5C113.485 120 114.46 119.806 115.37 119.429C116.28 119.052 117.107 118.5 117.803 117.803C118.5 117.107 119.052 116.28 119.429 115.37C119.806 114.46 120 113.485 120 112.5V78.75L84.1725 49.1475Z" fill="#E6E6E6"/>
</svg>
