<svg width="45" height="82" viewBox="0 0 45 82" fill="none" xmlns="http://www.w3.org/2000/svg">
<circle cx="22.5" cy="28" r="22.5" fill="#AD95E1"/>
<path d="M28.72 65.756C27.9947 65.756 27.4827 65.6493 27.184 65.436C26.8853 65.2227 26.736 64.7533 26.736 64.028C26.736 63.5587 26.8427 63.2387 27.056 63.068C27.2693 62.8973 27.7173 62.812 28.4 62.812C29.3387 62.812 29.808 62.4493 29.808 61.724C29.808 57.5 29.488 51.2707 28.848 43.036C28.208 34.7587 27.888 28.6147 27.888 24.604C27.888 24.22 27.9093 23.8573 27.952 23.516V22.3C27.952 20.2947 27.2267 19.292 25.776 19.292H25.072L24.304 19.356C23.0667 19.356 22.448 18.8867 22.448 17.948C22.448 16.8387 24.176 16.284 27.632 16.284C29.4667 16.284 30.5547 16.6467 30.896 17.372C30.64 18.524 30.512 19.42 30.512 20.06C30.512 21.212 30.6827 23.1533 31.024 25.884C31.3227 28.316 31.472 30.2787 31.472 31.772C31.472 34.8013 31.7067 39.836 32.176 46.876C32.6453 53.1053 32.88 58.1827 32.88 62.108V62.492C33.0507 62.492 33.2853 62.4707 33.584 62.428C33.8827 62.3853 34.1813 62.364 34.48 62.364C34.6507 62.3213 34.9067 62.3 35.248 62.3C37.04 62.3 37.936 62.8333 37.936 63.9C37.936 65.1373 35.504 65.756 30.64 65.756H29.616H28.72Z" fill="#1D1D1D"/>
</svg>
